<svg xmlns="http://www.w3.org/2000/svg" xmlns:xlink="http://www.w3.org/1999/xlink" width="500" zoomAndPan="magnify" viewBox="0 0 375 374.999991" height="500" preserveAspectRatio="xMidYMid meet" version="1.0"><defs><g/><clipPath id="id1"><path d="M 79.222656 81.117188 L 295.972656 81.117188 L 295.972656 294 L 79.222656 294 Z M 79.222656 81.117188 " clip-rule="nonzero"/></clipPath></defs><g clip-path="url(#id1)"><path fill="#efefef" d="M 296.019531 293.742188 L 79.175781 293.742188 L 79.175781 81.125 L 122.796875 81.125 L 152.703125 99.289062 L 296.019531 99.289062 Z M 85.582031 287.335938 L 289.609375 287.335938 L 289.609375 105.699219 L 150.914062 105.699219 L 121.003906 87.53125 L 85.585938 87.53125 L 85.585938 287.335938 Z M 85.582031 287.335938 " fill-opacity="1" fill-rule="nonzero"/></g><g fill="#efefef" fill-opacity="1"><g transform="translate(133.764077, 225.262368)"><g><path d="M 49.515625 -19.84375 L 17.703125 -19.84375 C 17.703125 -16.757812 18.695312 -14.476562 20.6875 -13 C 22.6875 -11.519531 24.859375 -10.78125 27.203125 -10.78125 C 29.648438 -10.78125 31.585938 -11.109375 33.015625 -11.765625 C 34.441406 -12.421875 36.066406 -13.71875 37.890625 -15.65625 L 48.84375 -10.171875 C 44.28125 -2.535156 36.695312 1.28125 26.09375 1.28125 C 19.476562 1.28125 13.800781 -0.984375 9.0625 -5.515625 C 4.332031 -10.046875 1.96875 -15.503906 1.96875 -21.890625 C 1.96875 -28.273438 4.332031 -33.75 9.0625 -38.3125 C 13.800781 -42.875 19.476562 -45.15625 26.09375 -45.15625 C 33.039062 -45.15625 38.695312 -43.144531 43.0625 -39.125 C 47.425781 -35.101562 49.609375 -29.359375 49.609375 -21.890625 C 49.609375 -20.867188 49.578125 -20.1875 49.515625 -19.84375 Z M 18.125 -28.21875 L 34.8125 -28.21875 C 34.46875 -30.5 33.566406 -32.253906 32.109375 -33.484375 C 30.660156 -34.710938 28.796875 -35.328125 26.515625 -35.328125 C 24.003906 -35.328125 22.003906 -34.671875 20.515625 -33.359375 C 19.035156 -32.046875 18.238281 -30.332031 18.125 -28.21875 Z M 18.125 -28.21875 "/></g></g></g><g fill="#efefef" fill-opacity="1"><g transform="translate(176.702158, 225.262368)"><g/></g></g><g fill="#efefef" fill-opacity="1"><g transform="translate(191.413652, 225.262368)"><g><path d="M 7.703125 -43.875 L 7.703125 -53.203125 C 7.753906 -59.753906 9.289062 -65 12.3125 -68.9375 C 15.332031 -72.875 19.523438 -74.84375 24.890625 -74.84375 C 27.171875 -74.84375 29.347656 -74.515625 31.421875 -73.859375 C 33.503906 -73.203125 35.003906 -72.53125 35.921875 -71.84375 L 37.375 -70.90625 L 32.078125 -60.21875 C 30.703125 -61.007812 29.191406 -61.40625 27.546875 -61.40625 C 25.660156 -61.40625 24.40625 -60.765625 23.78125 -59.484375 C 23.15625 -58.203125 22.84375 -55.960938 22.84375 -52.765625 L 22.84375 -43.875 L 32.921875 -43.875 L 32.921875 -32.328125 L 22.84375 -32.328125 L 22.84375 0 L 7.703125 0 L 7.703125 -32.328125 L 1.375 -32.328125 L 1.375 -43.875 Z M 7.703125 -43.875 "/></g></g></g></svg>